<svg xmlns="http://www.w3.org/2000/svg" viewBox="0 0 512 512" width="512" height="512">
  <defs>
    <radialGradient id="bg" cx="50%" cy="40%" r="75%">
      <stop offset="0%" stop-color="#3a2d63"/>
      <stop offset="70%" stop-color="#0c0a14"/>
    </radialGradient>
    <linearGradient id="blade" x1="0" y1="0" x2="0" y2="1">
      <stop offset="0%" stop-color="#eef4ff"/>
      <stop offset="100%" stop-color="#9fb6d8"/>
    </linearGradient>
    <linearGradient id="gold" x1="0" y1="0" x2="0" y2="1">
      <stop offset="0%" stop-color="#ffe07a"/>
      <stop offset="100%" stop-color="#d99a2b"/>
    </linearGradient>
  </defs>
  <rect width="512" height="512" rx="96" fill="url(#bg)"/>
  <!-- shield -->
  <path d="M256 96 L386 138 V292 C386 360 326 404 256 432 C186 404 126 360 126 292 V138 Z"
        fill="#2f6fb0" stroke="url(#gold)" stroke-width="14" stroke-linejoin="round"/>
  <path d="M256 120 L362 154 V292 C362 348 312 386 256 410 V120 Z" fill="#3f86cf" opacity="0.7"/>
  <!-- sword -->
  <g transform="rotate(35 256 268)">
    <rect x="246" y="120" width="20" height="190" rx="6" fill="url(#blade)" stroke="#6f86a8" stroke-width="3"/>
    <polygon points="246,120 266,120 256,98" fill="url(#blade)" stroke="#6f86a8" stroke-width="3"/>
    <rect x="214" y="306" width="84" height="18" rx="8" fill="url(#gold)"/>
    <rect x="248" y="322" width="16" height="56" rx="6" fill="#8a5a26"/>
    <circle cx="256" cy="386" r="13" fill="url(#gold)"/>
  </g>
</svg>
